<?xml version="1.0" encoding="UTF-8"?>
<!DOCTYPE svg PUBLIC "-//W3C//DTD SVG 1.0//EN" "http://www.w3.org/TR/2001/REC-SVG-20010904/DTD/svg10.dtd">
<!-- Creator: CorelDRAW 2021 (64-Bit) -->
<svg xmlns="http://www.w3.org/2000/svg" xml:space="preserve" width="105px" height="64px" version="1.0" style="shape-rendering:geometricPrecision; text-rendering:geometricPrecision; image-rendering:optimizeQuality; fill-rule:evenodd; clip-rule:evenodd"
viewBox="0 0 11.02 6.72"
 xmlns:xlink="http://www.w3.org/1999/xlink"
 xmlns:xodm="http://www.corel.com/coreldraw/odm/2003">
 <defs>
  <style type="text/css">
   <![CDATA[
    .fil0 {fill:#DEE4FF}
    .fil1 {fill:#0C6351;fill-rule:nonzero}
   ]]>
  </style>
 </defs>
 <g id="Layer_x0020_1">
  <metadata id="CorelCorpID_0Corel-Layer"/>
  <g id="_2290605510656">
   <polygon class="fil0" points="0,0 11.02,0 11.02,6.72 0,6.72 "/>
   <g>
    <g>
     <path class="fil1" d="M6.31 1.81l-1.6 0 0 -0.23 1.6 0 0 0 0 0.23zm0 -0.23c0.07,0 0.12,0.05 0.12,0.12 0,0.06 -0.05,0.11 -0.12,0.11l0 -0.23zm0.35 0.35l-0.23 0 0 0 0 -0.01 0 -0.01 0 0 -0.01 -0.01 0 0 0 -0.01 0 0 0 -0.01 0 0 -0.01 -0.01 0 0 0 -0.01 -0.01 0 0 -0.01 0 0 -0.01 0 0 -0.01 0 0 -0.01 -0.01 0 0 -0.01 0 0 0 -0.01 -0.01 0 0 -0.01 0 0 0 -0.01 0 0 -0.01 -0.01 0 -0.01 0 0 0 -0.01 0 0 -0.23 0.02 0 0.02 0 0.01 0.01 0.02 0 0.02 0 0.01 0.01 0.02 0 0.02 0.01 0.01 0.01 0.02 0 0.01 0.01 0.01 0.01 0.02 0.01 0.01 0.01 0.01 0.01 0.01 0.01 0.02 0.02 0.01 0.01 0.01 0.01 0.01 0.01 0.01 0.02 0 0.01 0.01 0.02 0.01 0.01 0 0.02 0.01 0.01 0 0.02 0.01 0.02 0 0.01 0 0.02 0.01 0.02 0 0.02 0 0zm0 0c0,0.06 -0.06,0.11 -0.12,0.11 -0.06,0 -0.11,-0.05 -0.11,-0.11l0.23 0zm-0.23 1.6l0 -1.6 0.23 0 0 1.6 0 0 -0.23 0zm0.23 0c0,0.06 -0.06,0.11 -0.12,0.11 -0.06,0 -0.11,-0.05 -0.11,-0.11l0.23 0zm-0.35 0.34l0 -0.23 0 0 0.01 0 0 0 0.01 0 0.01 0 0 0 0.01 0 0 0 0.01 -0.01 0 0 0.01 0 0 0 0.01 -0.01 0 0 0.01 0 0 -0.01 0 0 0.01 -0.01 0 0 0 0 0.01 -0.01 0 0 0 -0.01 0.01 0 0 -0.01 0 0 0 -0.01 0 0 0 -0.01 0.01 0 0 -0.01 0 -0.01 0 0 0.23 0 0 0.02 -0.01 0.01 0 0.02 0 0.02 -0.01 0.01 0 0.02 -0.01 0.02 0 0.01 -0.01 0.02 -0.01 0.01 0 0.02 -0.01 0.01 -0.01 0.01 -0.01 0.02 -0.01 0.01 -0.02 0.01 -0.01 0.01 -0.01 0.01 -0.01 0.01 -0.02 0.01 -0.01 0.01 -0.01 0.01 -0.02 0.01 -0.01 0 -0.02 0.01 -0.02 0.01 -0.01 0 -0.02 0 -0.02 0.01 -0.01 0 -0.02 0 -0.02 0 0 0zm0 0c-0.06,0 -0.11,-0.05 -0.11,-0.11 0,-0.07 0.05,-0.12 0.11,-0.12l0 0.23zm-1.6 -0.23l1.6 0 0 0.23 -1.6 0 0 0 0 -0.23zm0 0.23c-0.06,0 -0.11,-0.05 -0.11,-0.11 0,-0.07 0.05,-0.12 0.11,-0.12l0 0.23zm-0.34 -0.34l0.23 0 0 0 0 0 0 0.01 0 0.01 0 0 0 0.01 0 0 0 0.01 0.01 0 0 0.01 0 0 0 0.01 0.01 0 0 0.01 0 0 0.01 0 0 0.01 0 0 0.01 0.01 0 0 0.01 0 0 0.01 0.01 0 0 0 0.01 0 0 0.01 0.01 0 0 0 0.01 0 0 0 0.01 0 0 0 0.01 0 0 0.23 -0.02 0 -0.01 0 -0.02 0 -0.02 -0.01 -0.01 0 -0.02 0 -0.02 -0.01 -0.01 -0.01 -0.02 0 -0.01 -0.01 -0.02 -0.01 -0.01 -0.01 -0.02 -0.01 -0.01 -0.01 -0.01 -0.01 -0.01 -0.01 -0.01 -0.01 -0.01 -0.01 -0.01 -0.02 -0.01 -0.01 -0.01 -0.01 -0.01 -0.02 -0.01 -0.01 -0.01 -0.02 0 -0.01 -0.01 -0.02 0 -0.02 -0.01 -0.01 0 -0.02 0 -0.02 0 -0.01 0 -0.02 0 0zm0 0c0,-0.07 0.05,-0.12 0.11,-0.12 0.06,0 0.12,0.05 0.12,0.12l-0.23 0zm0.23 -1.6l0 1.6 -0.23 0 0 -1.6 0 0 0.23 0zm-0.23 0c0,-0.07 0.05,-0.12 0.11,-0.12 0.06,0 0.12,0.05 0.12,0.12l-0.23 0zm0.34 -0.35l0 0.23 0 0 -0.01 0 0 0 -0.01 0 0 0 -0.01 0.01 0 0 -0.01 0 0 0 -0.01 0 0 0.01 -0.01 0 0 0 -0.01 0 0 0.01 -0.01 0 0 0.01 0 0 -0.01 0 0 0.01 0 0 -0.01 0.01 0 0 0 0.01 -0.01 0 0 0.01 0 0 0 0.01 0 0 0 0.01 0 0 0 0.01 0 0.01 -0.23 0 0 -0.02 0 -0.02 0 -0.02 0 -0.01 0.01 -0.02 0 -0.02 0.01 -0.01 0 -0.02 0.01 -0.01 0.01 -0.02 0.01 -0.01 0.01 -0.02 0.01 -0.01 0.01 -0.01 0.01 -0.01 0.01 -0.02 0.01 -0.01 0.01 -0.01 0.02 -0.01 0.01 -0.01 0.01 -0.01 0.02 -0.01 0.01 0 0.02 -0.01 0.01 -0.01 0.02 0 0.01 -0.01 0.02 0 0.02 0 0.02 -0.01 0.01 0 0.02 0 0 0zm0 0c0.06,0 0.12,0.05 0.12,0.12 0,0.06 -0.06,0.11 -0.12,0.11l0 -0.23z"/>
    </g>
    <g>
     <path class="fil1" d="M5.11 2.27l0 -0.23 0 0 0.02 0 0.01 0 0.01 0 0.02 0.01 0.01 0 0.02 0 0.01 0.01 0.01 0 0.01 0.01 0.02 0 0.01 0.01 0.01 0.01 0.01 0.01 0.01 0.01 0.01 0 0.01 0.01 0.01 0.01 0.01 0.01 0.01 0.01 0.01 0.02 0.01 0.01 0 0.01 0.01 0.01 0 0.01 0.01 0.02 0 0.01 0.01 0.02 0 0.01 0 0.01 0.01 0.02 0 0.01 0 0.02 -0.23 0 0 -0.01 0 0 0 0 0 0 0 -0.01 0 0 -0.01 0 0 -0.01 0 0 0 0 0 0 0 -0.01 0 0 0 0 -0.01 0 0 0 0 -0.01 0 0 -0.01 0 0 0 0 0 0 0 0 -0.01 -0.01 0 0 0 0 0 0 0 -0.01 0 0 0 0 0 -0.01 0 0 0 0 0zm0 0c-0.06,0 -0.11,-0.05 -0.11,-0.12 0,-0.06 0.05,-0.11 0.11,-0.11l0 0.23zm-0.06 0.06l-0.23 0 0 0 0.01 -0.02 0 -0.01 0 -0.02 0 -0.01 0 -0.01 0.01 -0.02 0 -0.01 0.01 -0.02 0 -0.01 0.01 -0.01 0.01 -0.01 0 -0.01 0.01 -0.01 0.01 -0.02 0.01 -0.01 0.01 -0.01 0.01 -0.01 0.01 0 0.01 -0.01 0.01 -0.01 0.01 -0.01 0.02 -0.01 0.01 0 0.01 -0.01 0.01 0 0.02 -0.01 0.01 0 0.01 0 0.02 -0.01 0.01 0 0.02 0 0.01 0 0 0.23 0 0 -0.01 0 0 0 0 0 0 0 -0.01 0 0 0 0 0 0 0 -0.01 0.01 0 0 0 0 0 0 0 0 -0.01 0 0 0.01 0 0 0 0 0 0 -0.01 0 0 0.01 0 0 0 0 0 0 0 0.01 0 0 0 0 -0.01 0.01 0 0 0 0 0 0 0 0.01 0 0zm0 0c0,0.06 -0.05,0.11 -0.11,0.11 -0.06,0 -0.12,-0.05 -0.12,-0.11l0.23 0zm0.06 0.05l0 0.23 0 0 -0.01 0 -0.02 0 -0.01 0 -0.02 0 -0.01 -0.01 -0.01 0 -0.02 -0.01 -0.01 0 -0.01 -0.01 -0.01 0 -0.02 -0.01 -0.01 -0.01 -0.01 0 -0.01 -0.01 -0.01 -0.01 -0.01 -0.01 -0.01 -0.01 -0.01 -0.01 -0.01 -0.01 -0.01 -0.01 0 -0.01 -0.01 -0.02 -0.01 -0.01 0 -0.01 -0.01 -0.02 0 -0.01 -0.01 -0.01 0 -0.02 0 -0.01 0 -0.01 0 -0.02 -0.01 -0.01 0.23 0 0 0 0 0 0 0.01 0 0 0.01 0 0 0 0 0.01 0 0 0 0 0 0 0 0.01 0 0 0.01 0 0 0 0 0 0 0.01 0 0 0.01 0 0 0 0 0 0 0.01 0 0 0.01 0 0 0 0 0 0 0 0.01 0 0 0 0 0 0 0 0.01 0 0 0 0 0zm0 0c0.06,0 0.12,0.05 0.12,0.12 0,0.06 -0.06,0.11 -0.12,0.11l0 -0.23zm0.06 -0.05l0.23 0 0 0 0 0.01 0 0.02 -0.01 0.01 0 0.01 0 0.02 -0.01 0.01 0 0.01 -0.01 0.02 0 0.01 -0.01 0.01 0 0.01 -0.01 0.02 -0.01 0.01 -0.01 0.01 -0.01 0.01 -0.01 0.01 -0.01 0.01 -0.01 0.01 -0.01 0.01 -0.01 0 -0.01 0.01 -0.01 0.01 -0.02 0 -0.01 0.01 -0.01 0.01 -0.01 0 -0.02 0 -0.01 0.01 -0.02 0 -0.01 0 -0.01 0 -0.02 0 0 -0.23 0 0 0.01 0 0 0 0 0 0.01 0 0 0 0 0 0 0 0.01 0 0 0 0 0 0 -0.01 0 0 0.01 0 0 0 0 0 0 -0.01 0.01 0 0 0 0 0 0 0 0 -0.01 0 0 0 0 0 0 0.01 -0.01 0 0 0 0 0 0 0 -0.01 0 0 0 0 0 0zm0 0c0,-0.07 0.05,-0.12 0.11,-0.12 0.07,0 0.12,0.05 0.12,0.12l-0.23 0z"/>
    </g>
    <g>
     <path class="fil1" d="M6.62 2.99c0.05,0.04 0.05,0.12 0,0.16 -0.04,0.05 -0.12,0.05 -0.16,0l0.16 -0.16zm-0.57 -0.57l0.57 0.57 -0.16 0.16 -0.57 -0.57 0 -0.16 0.16 0zm-0.16 0.16c-0.05,-0.05 -0.05,-0.12 0,-0.16 0.04,-0.05 0.12,-0.05 0.16,0l-0.16 0.16zm-1.26 1.1l1.26 -1.26 0.16 0.16 -1.26 1.26 -0.16 -0.16zm0.16 0.16c-0.04,0.04 -0.12,0.04 -0.16,0 -0.05,-0.05 -0.04,-0.12 0,-0.16l0.16 0.16z"/>
    </g>
   </g>
   <path class="fil1" d="M4.21 5.02l0 -0.01c-0.08,-0.07 -0.12,-0.18 -0.12,-0.29 0,-0.1 0.04,-0.22 0.13,-0.29l0 -0.01 -0.08 0c-0.08,0.07 -0.12,0.18 -0.12,0.3 0,0.12 0.04,0.23 0.11,0.3l0.08 0zm0.09 -0.1l0.07 0 0 -0.4 -0.13 0 0 0.07 0.06 0 0 0.33zm0.15 -0.21c0,0.12 0.03,0.2 0.14,0.2 0.11,0 0.15,-0.08 0.15,-0.2 0,-0.11 -0.04,-0.19 -0.15,-0.19 -0.11,0 -0.14,0.08 -0.14,0.19zm0.21 0c0,0.07 0,0.13 -0.07,0.13 -0.06,0 -0.07,-0.06 -0.07,-0.13 0,-0.06 0.01,-0.12 0.07,-0.12 0.07,0 0.07,0.06 0.07,0.12zm0.16 -0.19l0 0.23 0.07 0c0.01,-0.02 0.03,-0.04 0.06,-0.04 0.04,0 0.06,0.03 0.06,0.07 0,0.04 -0.02,0.07 -0.06,0.07 -0.04,0 -0.06,-0.02 -0.07,-0.04l-0.07 0c0.01,0.06 0.05,0.11 0.14,0.11 0.09,0 0.13,-0.06 0.13,-0.14 0,-0.06 -0.03,-0.13 -0.12,-0.13 -0.03,0 -0.06,0.01 -0.08,0.03l0 -0.09 0.18 0 0 -0.07 -0.24 0zm0.32 0.19c0,0.12 0.04,0.2 0.15,0.2 0.11,0 0.14,-0.08 0.14,-0.2 0,-0.11 -0.03,-0.19 -0.14,-0.19 -0.11,0 -0.15,0.08 -0.15,0.19zm0.22 0c0,0.07 -0.01,0.13 -0.07,0.13 -0.07,0 -0.07,-0.06 -0.07,-0.13 0,-0.06 0,-0.12 0.07,-0.12 0.06,0 0.07,0.06 0.07,0.12zm0.3 0.21l0.09 0 -0.1 -0.15 0.1 -0.15 -0.08 0 -0.06 0.09 -0.06 -0.09 -0.09 0 0.1 0.15 -0.09 0.15 0.08 0 0.05 -0.1 0.06 0.1zm1.16 0.1l0 -0.01c0.07,-0.07 0.11,-0.18 0.11,-0.29 0,-0.1 -0.04,-0.22 -0.12,-0.29l0 -0.01 0.07 0c0.08,0.07 0.12,0.18 0.12,0.3 0,0.12 -0.04,0.23 -0.11,0.3l-0.07 0zm-0.77 -0.4c0,-0.05 -0.04,-0.11 -0.12,-0.11 -0.1,0 -0.14,0.08 -0.14,0.2 0,0.13 0.03,0.21 0.14,0.21 0.09,0 0.13,-0.06 0.13,-0.13 0,-0.09 -0.05,-0.13 -0.11,-0.13 -0.04,0 -0.08,0.01 -0.1,0.04 0,-0.09 0.03,-0.12 0.08,-0.12 0.03,0 0.05,0.01 0.05,0.04l0.07 0zm-0.12 0.1c0.04,0 0.06,0.03 0.06,0.07 0,0.04 -0.02,0.06 -0.06,0.06 -0.04,0 -0.07,-0.02 -0.07,-0.07 0,-0.04 0.03,-0.06 0.07,-0.06zm0.38 0.2l0.07 0 0 -0.08 0.05 0 0 -0.07 -0.05 0 0 -0.24 -0.08 0 -0.18 0.25 0 0.06 0.19 0 0 0.08zm-0.11 -0.15l0.11 -0.16 0 0.16 -0.11 0zm0.28 -0.06c0,0.12 0.03,0.2 0.14,0.2 0.11,0 0.15,-0.08 0.15,-0.2 0,-0.11 -0.04,-0.19 -0.15,-0.19 -0.11,0 -0.14,0.08 -0.14,0.19zm0.22 0c0,0.07 -0.01,0.13 -0.08,0.13 -0.06,0 -0.07,-0.06 -0.07,-0.13 0,-0.06 0.01,-0.12 0.07,-0.12 0.07,0 0.08,0.06 0.08,0.12z"/>
  </g>
 </g>
</svg>
