<?xml version="1.0" standalone="no"?>
<!DOCTYPE svg PUBLIC "-//W3C//DTD SVG 20010904//EN"
 "http://www.w3.org/TR/2001/REC-SVG-20010904/DTD/svg10.dtd">
<svg version="1.0" xmlns="http://www.w3.org/2000/svg"
 width="2480.000000pt" height="3508.000000pt" viewBox="0 0 2480.000000 3508.000000"
 preserveAspectRatio="xMidYMid meet">

<g transform="translate(0.000000,3508.000000) scale(0.100000,-0.100000)"
fill="#FAFAFA" stroke="none">
<path d="M10915 26550 c-75 -15 -142 -37 -191 -62 -72 -37 -118 -62 -124 -68
-12 -12 -70 -50 -76 -50 -3 0 -23 -13 -44 -30 -21 -16 -41 -30 -45 -30 -8 0
-148 -106 -225 -169 -167 -139 -301 -264 -448 -421 -171 -182 -249 -276 -399
-485 -85 -118 -202 -298 -242 -370 -12 -22 -37 -66 -54 -97 -74 -133 -88 -161
-78 -171 5 -5 18 -4 32 3 12 7 48 19 78 26 352 87 664 70 871 -48 8 -4 22 -11
30 -15 35 -15 160 -116 187 -150 77 -99 153 -269 153 -342 0 -29 15 -58 22
-45 3 5 20 36 38 69 18 33 39 67 46 76 8 8 14 18 14 22 0 5 37 60 127 190 103
149 320 388 464 513 125 108 235 194 248 194 5 0 11 3 13 8 3 7 64 52 72 52 7
0 107 69 149 103 53 43 147 169 181 241 52 111 70 190 70 321 0 171 -40 296
-142 443 -81 116 -244 229 -402 278 -62 19 -261 28 -325 14z"/>
<path d="M13410 25249 c-250 -29 -319 -40 -450 -74 -176 -45 -428 -146 -575
-229 -22 -12 -56 -31 -75 -42 -19 -10 -68 -41 -108 -69 -41 -27 -81 -54 -90
-60 -137 -86 -488 -420 -663 -630 -89 -108 -224 -289 -276 -371 -119 -188
-213 -377 -290 -579 -35 -92 -43 -115 -72 -210 -36 -120 -43 -153 -93 -445
-15 -87 -14 -594 0 -690 7 -41 17 -106 22 -145 26 -179 112 -493 190 -695 12
-30 25 -66 30 -80 22 -68 154 -348 234 -495 62 -115 88 -160 104 -187 9 -15
37 -60 61 -100 54 -89 242 -369 282 -419 16 -20 29 -40 29 -43 0 -7 45 -66
277 -357 59 -74 171 -213 248 -309 143 -177 193 -240 302 -377 291 -367 368
-463 397 -498 19 -22 70 -87 114 -145 45 -58 87 -112 95 -120 20 -22 466 -615
510 -680 21 -30 61 -86 88 -125 56 -78 139 -198 154 -223 6 -9 22 -33 38 -53
15 -20 27 -39 27 -42 0 -3 26 -45 58 -94 65 -99 102 -161 185 -313 101 -186
174 -360 202 -483 20 -90 20 -301 -1 -454 -47 -354 -185 -606 -437 -801 -112
-87 -146 -108 -287 -178 -172 -85 -302 -114 -512 -114 -175 0 -318 20 -548 76
-89 21 -109 27 -192 55 -18 6 -46 14 -63 19 -46 13 -97 31 -127 46 -14 8 -33
14 -41 14 -9 0 -28 6 -44 14 -27 14 -49 23 -142 63 -58 24 -356 174 -401 201
-19 12 -44 26 -55 31 -11 5 -37 21 -58 35 -21 14 -40 26 -42 26 -4 0 -147 95
-170 113 -5 4 -50 37 -100 74 -99 74 -254 204 -415 351 -141 129 -627 616
-770 772 -162 177 -202 215 -278 264 -140 91 -243 121 -417 120 -119 -1 -138
-3 -222 -33 -51 -17 -121 -48 -155 -69 -60 -35 -238 -202 -238 -223 0 -5 -11
-27 -25 -49 -82 -130 -117 -354 -79 -517 37 -164 90 -261 221 -403 338 -369
692 -725 963 -971 63 -57 117 -106 120 -109 3 -4 37 -33 75 -65 39 -32 97 -82
130 -110 72 -62 287 -226 368 -281 87 -58 100 -66 156 -99 28 -16 51 -33 51
-37 0 -5 5 -8 11 -8 6 0 30 -13 54 -30 24 -16 54 -34 67 -40 13 -6 39 -20 58
-31 60 -37 140 -79 280 -150 116 -58 165 -81 295 -139 11 -5 43 -18 70 -30 28
-11 62 -27 77 -35 14 -8 35 -15 45 -15 10 0 23 -4 28 -8 13 -10 161 -66 220
-82 39 -11 91 -29 133 -46 18 -8 41 -14 52 -14 11 0 37 -6 57 -14 89 -32 307
-81 493 -111 266 -44 529 -56 785 -38 104 7 203 17 220 22 16 5 53 12 80 16
110 15 358 89 495 148 148 64 450 224 505 269 15 12 150 111 176 128 57 38
243 206 322 290 76 81 267 319 267 334 0 3 13 24 29 48 59 89 130 221 176 330
26 62 51 122 56 133 48 109 124 404 154 599 35 225 43 716 15 881 -22 126 -41
216 -60 280 -12 39 -25 84 -30 100 -16 56 -75 213 -105 280 -8 17 -24 53 -35
80 -38 86 -167 338 -190 370 -4 6 -22 37 -40 70 -18 33 -46 79 -61 103 -16 24
-29 45 -29 47 0 2 -13 24 -30 48 -16 25 -30 48 -30 51 0 6 -289 438 -342 511
-16 22 -84 114 -151 205 -67 91 -135 184 -152 206 -80 110 -96 131 -119 159
-13 17 -81 104 -150 195 -70 91 -146 190 -170 220 -25 30 -129 161 -231 290
-103 129 -203 255 -223 279 -20 24 -49 60 -65 80 -15 20 -33 43 -40 51 -554
682 -777 970 -852 1098 -5 10 -21 33 -35 52 -14 19 -29 42 -35 52 -5 10 -42
70 -81 135 -73 119 -195 356 -232 448 -67 166 -97 256 -127 385 -133 575 28
1036 542 1548 89 89 167 162 173 162 5 0 30 15 54 34 24 18 63 43 87 55 24 12
51 26 59 31 49 28 155 64 252 85 61 14 111 16 240 13 90 -3 186 -10 213 -17
28 -7 79 -20 115 -28 102 -24 272 -82 380 -130 59 -26 262 -129 310 -157 25
-14 54 -30 65 -36 23 -12 39 -22 168 -104 94 -61 424 -304 487 -360 20 -17 57
-49 84 -71 59 -49 201 -171 247 -212 19 -17 61 -54 94 -83 211 -187 560 -528
795 -776 113 -120 197 -175 345 -227 51 -18 84 -21 220 -21 142 -1 167 2 223
22 233 83 398 244 481 467 18 50 41 186 41 246 0 60 -25 210 -40 238 -4 9 -18
41 -30 71 -31 75 -59 117 -143 213 -117 134 -438 456 -652 656 -110 102 -202
188 -205 191 -7 7 -238 209 -270 236 -14 12 -59 50 -100 86 -41 35 -122 102
-180 148 -58 46 -110 89 -117 95 -34 29 -343 255 -349 255 -5 0 -66 42 -74 51
-3 3 -12 8 -20 12 -8 4 -49 29 -90 57 -41 27 -87 55 -102 61 -16 6 -28 15 -28
20 0 5 -5 9 -11 9 -6 0 -50 23 -98 51 -47 28 -93 54 -101 59 -8 5 -62 32 -120
60 -58 28 -112 56 -120 61 -8 5 -22 12 -30 15 -8 3 -28 11 -45 19 -62 28 -131
57 -150 65 -11 4 -37 15 -58 24 -21 9 -42 16 -48 16 -6 0 -25 6 -42 14 -18 8
-63 24 -102 36 -38 12 -79 25 -91 30 -11 4 -61 18 -110 29 -49 12 -114 28
-144 36 -224 56 -627 87 -830 64z"/>
<path d="M9220 24244 c-55 -12 -155 -45 -202 -69 -220 -110 -330 -262 -458
-630 -47 -136 -56 -163 -79 -250 -12 -44 -25 -93 -30 -110 -5 -16 -19 -75 -30
-130 -12 -55 -26 -116 -31 -135 -5 -19 -14 -78 -21 -130 -6 -52 -13 -97 -14
-100 -2 -3 -12 -78 -22 -165 -22 -201 -25 -754 -5 -945 15 -135 45 -354 61
-435 47 -236 117 -506 170 -660 12 -33 32 -91 45 -130 30 -87 65 -174 92 -228
8 -16 14 -32 14 -37 0 -9 72 -165 129 -280 55 -109 111 -211 180 -328 34 -57
61 -105 61 -107 0 -2 17 -30 38 -62 142 -215 178 -270 184 -283 5 -8 41 -62
82 -120 41 -58 101 -142 133 -188 90 -129 536 -721 661 -877 61 -77 115 -144
119 -150 5 -5 32 -39 61 -75 29 -36 56 -70 60 -75 4 -6 30 -37 58 -70 27 -33
59 -72 70 -86 10 -15 43 -55 73 -90 29 -35 60 -73 70 -84 120 -146 417 -498
576 -680 29 -33 88 -101 131 -151 405 -469 686 -771 754 -811 115 -69 181 -95
296 -117 101 -20 150 -20 255 -1 118 22 195 54 299 124 122 84 207 193 265
341 21 53 34 123 49 255 2 17 -3 71 -10 122 -27 182 -82 284 -262 482 -237
263 -332 370 -398 446 -37 44 -85 98 -105 120 -21 22 -48 54 -60 70 -13 17
-26 32 -30 35 -9 7 -317 367 -419 490 -47 57 -116 140 -155 185 -132 154 -550
672 -598 740 -12 17 -27 35 -33 40 -12 10 -429 565 -449 597 -5 8 -42 60 -82
115 -60 84 -282 415 -320 478 -7 11 -38 63 -69 115 -155 255 -273 511 -368
800 -24 73 -82 308 -99 405 -49 269 -50 281 -50 610 0 280 3 338 22 465 12 80
26 161 31 180 5 19 19 76 30 125 23 94 46 176 60 210 5 11 11 29 13 40 3 11
24 64 46 118 61 147 74 206 75 337 1 108 -21 244 -44 275 -4 6 -11 21 -15 33
-12 41 -76 141 -122 192 -59 65 -155 140 -223 172 -115 55 -177 69 -310 73
-69 2 -136 1 -150 -1z"/>
<path d="M13895 22509 c-100 -9 -170 -28 -270 -76 -90 -43 -112 -59 -206 -155
-134 -136 -205 -318 -203 -523 1 -115 27 -224 76 -320 48 -95 64 -115 383
-470 55 -61 115 -129 134 -151 71 -83 199 -230 281 -323 47 -53 130 -150 185
-216 55 -65 132 -156 170 -201 66 -77 132 -156 313 -374 95 -115 422 -523 513
-640 214 -276 556 -740 629 -854 8 -13 38 -57 65 -97 28 -40 52 -78 55 -84 3
-5 30 -48 60 -95 30 -47 60 -94 67 -105 7 -11 37 -62 69 -114 48 -79 175 -326
220 -426 34 -77 116 -306 144 -400 99 -343 146 -693 137 -1022 -12 -430 -84
-782 -222 -1098 -26 -60 -53 -162 -66 -251 -11 -80 -10 -102 5 -180 19 -103
50 -193 83 -246 13 -21 23 -41 23 -45 0 -12 99 -123 145 -164 47 -41 120 -90
155 -104 8 -4 29 -12 45 -19 158 -70 412 -70 570 0 17 7 37 15 45 19 58 23
176 117 239 192 54 63 115 172 160 288 12 33 27 69 32 80 13 30 68 192 85 250
79 272 117 454 160 785 24 179 26 225 26 550 0 196 -5 395 -11 445 -41 337
-52 410 -70 490 -6 22 -20 85 -32 140 -46 209 -136 516 -188 640 -4 11 -23 58
-41 105 -30 79 -48 121 -87 210 -31 70 -173 350 -198 389 -14 22 -25 43 -25
47 0 17 -167 286 -319 513 -53 79 -103 154 -111 167 -78 121 -427 594 -675
915 -177 229 -460 582 -585 729 -36 42 -101 121 -145 175 -44 54 -111 134
-150 178 -38 44 -81 94 -95 111 -31 40 -463 540 -602 697 -333 376 -372 417
-453 484 -62 51 -234 135 -277 135 -13 0 -39 4 -58 9 -55 14 -109 17 -185 10z"/>
<path d="M16175 13995 c-12 -36 -39 -88 -93 -180 -177 -299 -444 -620 -677
-812 -67 -55 -214 -163 -221 -163 -13 0 -135 -110 -184 -166 -45 -51 -88 -127
-133 -235 -8 -20 -23 -84 -32 -144 -16 -101 -16 -113 0 -203 35 -194 112 -336
246 -454 64 -55 73 -62 168 -108 159 -79 360 -98 516 -49 87 27 131 43 146 55
8 6 21 14 29 18 82 38 356 244 520 392 222 199 400 392 577 624 97 128 293
413 293 426 0 3 13 24 28 47 16 23 55 92 87 152 32 61 69 130 82 154 12 24 23
50 23 56 0 7 7 18 15 25 14 11 22 60 10 60 -3 0 -31 -8 -62 -19 -68 -22 -150
-43 -249 -65 -100 -22 -381 -22 -472 0 -198 49 -352 140 -445 266 -65 88 -118
196 -131 269 -3 19 -13 44 -20 55 -14 19 -15 19 -21 -1z"/>
</g>
</svg>
