<?xml version="1.0" encoding="UTF-8"?>
<!DOCTYPE svg PUBLIC "-//W3C//DTD SVG 1.0//EN" "http://www.w3.org/TR/2001/REC-SVG-20010904/DTD/svg10.dtd">
<!-- Creator: CorelDRAW 2021 (64-Bit) -->
<svg xmlns="http://www.w3.org/2000/svg" xml:space="preserve" width="100px" height="100px" version="1.0" style="shape-rendering:geometricPrecision; text-rendering:geometricPrecision; image-rendering:optimizeQuality; fill-rule:evenodd; clip-rule:evenodd"
viewBox="0 0 18.33 18.33"
 xmlns:xlink="http://www.w3.org/1999/xlink"
 xmlns:xodm="http://www.corel.com/coreldraw/odm/2003">
 <defs>
  <style type="text/css">
   <![CDATA[
    .fil0 {fill:#DEE4FF}
    .fil1 {fill:#0C6351;fill-rule:nonzero}
   ]]>
  </style>
 </defs>
 <g id="Layer_x0020_1">
  <metadata id="CorelCorpID_0Corel-Layer"/>
  <circle class="fil0" cx="9.16" cy="9.16" r="9.16"/>
  <g id="_2290603183936">
   <circle class="fil1" cx="6.38" cy="7.14" r="0.91"/>
   <circle class="fil1" cx="11.98" cy="7.14" r="0.91"/>
   <path class="fil1" d="M9.18 12.09c1.42,0 2.77,-0.49 3.86,-1.37 0.31,0.55 0.93,0.93 1.55,0.93l0 -0.91c-0.45,0 -0.88,-0.39 -0.88,-0.88 0,-0.49 0.43,-0.88 0.88,-0.88l0 -0.91c-0.9,0 -1.69,0.72 -1.77,1.63 -0.97,0.95 -2.28,1.48 -3.64,1.48 -1.38,0 -2.68,-0.52 -3.66,-1.48 -0.08,-0.91 -0.88,-1.63 -1.79,-1.63l0 0.91c0.51,0 0.88,0.39 0.88,0.88 0,0.49 -0.37,0.88 -0.88,0.88l0 0.91c0.68,0 1.26,-0.38 1.57,-0.93 1.09,0.89 2.45,1.37 3.88,1.37z"/>
  </g>
 </g>
</svg>
